<?xml version="1.0" standalone="no"?>
<!DOCTYPE svg PUBLIC "-//W3C//DTD SVG 20010904//EN"
 "http://www.w3.org/TR/2001/REC-SVG-20010904/DTD/svg10.dtd">
<svg version="1.0" xmlns="http://www.w3.org/2000/svg"
 width="1920.000000pt" height="1080.000000pt" viewBox="0 0 1920.000000 1080.000000"
 preserveAspectRatio="xMidYMid meet">

<g transform="translate(0.000000,1080.000000) scale(0.100000,-0.100000)"
fill="#000000" stroke="none">
<path d="M11600 8420 c-462 -35 -1064 -286 -1485 -620 -124 -98 -352 -333
-451 -465 -266 -355 -455 -790 -509 -1168 -19 -135 -19 -380 0 -493 20 -114
49 -213 86 -285 31 -63 49 -81 49 -50 0 11 -4 23 -10 26 -5 3 -10 18 -9 33 0
15 3 20 6 12 35 -108 111 -237 215 -370 99 -125 207 -212 343 -279 212 -103
479 -137 730 -91 61 12 127 23 148 27 48 7 87 -12 87 -42 0 -23 -104 -145
-123 -145 -7 0 -1 7 11 16 12 8 22 20 22 25 0 5 9 20 21 32 15 16 17 23 7 25
-31 6 -95 -35 -225 -144 -294 -247 -458 -330 -724 -370 -302 -44 -557 17 -796
190 -84 60 -123 79 -123 58 0 -4 5 -13 12 -20 7 -7 9 -12 4 -12 -27 0 -117
145 -152 247 -25 73 -26 85 -21 203 6 124 6 125 -18 149 -22 21 -33 23 -89 19
-81 -5 -138 -41 -270 -171 -210 -207 -318 -412 -341 -643 -13 -124 27 -301 81
-362 l23 -27 1 23 c0 13 -7 30 -15 38 -9 9 -15 32 -14 57 l1 42 7 -36 c12 -59
97 -219 154 -289 29 -35 84 -91 122 -123 64 -54 197 -147 210 -147 3 0 22 -10
43 -23 43 -27 147 -70 212 -87 25 -7 63 -18 85 -25 178 -57 545 -81 770 -50
181 24 287 48 425 95 81 28 297 132 368 176 29 19 55 34 57 34 16 0 220 156
289 220 222 208 342 346 532 613 89 125 324 489 324 502 0 2 20 37 44 78 24
41 64 112 89 158 24 46 55 102 67 124 64 113 114 218 160 340 4 11 13 34 20
50 19 48 37 105 54 171 44 172 -5 250 -198 315 -75 26 -78 28 -39 27 26 -1 44
-7 48 -16 3 -8 12 -11 26 -7 13 4 27 1 39 -10 10 -9 27 -17 38 -18 11 0 18 -5
16 -9 -3 -5 3 -11 13 -15 10 -3 26 -13 36 -21 22 -19 23 -2 2 37 -18 37 -95
87 -160 106 -205 61 -601 53 -975 -21 -286 -56 -473 -175 -473 -300 0 -40 4
-50 40 -83 43 -41 113 -62 251 -77 49 -5 76 -15 121 -44 71 -46 89 -81 67
-131 -14 -34 -14 -34 -15 -6 -1 15 4 27 10 27 8 0 8 5 -1 15 -23 28 -57 17
-122 -41 -111 -100 -228 -139 -396 -132 -97 4 -105 6 -194 51 -106 53 -123 57
-113 26 7 -21 6 -21 -18 2 -37 35 -94 134 -111 193 -28 96 -40 266 -27 372 22
186 84 371 178 534 58 100 172 256 247 337 16 18 27 35 24 38 -3 3 -75 -29
-159 -72 -166 -85 -197 -97 -322 -119 -91 -16 -277 -19 -277 -5 0 5 7 16 15
25 8 8 15 18 15 23 0 4 19 8 43 9 23 0 68 10 99 22 31 12 96 28 144 37 67 12
107 26 173 62 47 26 124 66 171 90 49 25 106 65 135 93 53 51 345 254 424 294
115 59 278 121 317 121 69 0 144 -67 144 -129 0 -30 -14 -34 -30 -8 -10 15
-11 15 -4 -3 14 -40 15 -91 0 -135 l-14 -45 -1 53 c-1 28 -5 52 -9 52 -17 0
-60 -58 -101 -135 -24 -44 -79 -130 -123 -193 -86 -120 -118 -189 -118 -250 0
-38 40 -117 47 -95 3 8 22 -5 48 -32 74 -78 175 -115 409 -150 167 -25 333
-15 426 27 65 29 129 64 171 94 49 36 199 188 199 203 0 4 -19 13 -42 19 -118
31 -507 115 -655 143 l-62 11 22 29 c14 19 27 27 37 23 8 -3 40 -8 70 -10 111
-8 227 -26 330 -50 153 -37 252 -52 276 -44 27 11 72 83 124 200 24 52 49 102
57 112 8 9 30 57 48 107 19 50 52 121 74 158 59 101 114 230 167 398 48 151
89 230 105 204 16 -26 21 1 9 50 -11 49 -36 77 -80 94 -9 3 -4 6 12 6 14 1 28
-4 30 -10 2 -6 12 -10 22 -8 17 4 16 7 -9 37 -65 77 -235 131 -446 142 l-145
7 -115 60 c-63 34 -139 68 -169 76 -71 20 -181 26 -300 17z m-220 -106 c0 -8
-19 -13 -24 -6 -3 5 1 9 9 9 8 0 15 -2 15 -3z m-110 -24 c0 -5 -2 -10 -4 -10
-3 0 -8 5 -11 10 -3 6 -1 10 4 10 6 0 11 -4 11 -10z m53 3 c-7 -2 -21 -2 -30
0 -10 3 -4 5 12 5 17 0 24 -2 18 -5z m774 -49 c-3 -3 -12 -4 -19 -1 -8 3 -5 6
6 6 11 1 17 -2 13 -5z m43 -34 c0 -5 -2 -10 -4 -10 -3 0 -8 5 -11 10 -3 6 -1
10 4 10 6 0 11 -4 11 -10z m-1163 -16 c-3 -3 -12 -4 -19 -1 -8 3 -5 6 6 6 11
1 17 -2 13 -5z m734 -4 c10 -6 19 -20 19 -32 0 -17 -5 -20 -27 -16 -16 3 -64
2 -108 -2 l-80 -7 93 0 c51 0 95 -3 99 -6 18 -19 -12 -35 -84 -46 -43 -7 -145
-26 -228 -43 -82 -17 -162 -31 -177 -30 -16 1 -28 -3 -28 -9 0 -6 -9 -7 -21
-4 -13 4 -19 3 -16 -2 4 -6 -5 -8 -21 -6 -19 3 -23 2 -14 -5 10 -6 2 -9 -25
-9 -21 0 -83 -17 -138 -38 -481 -178 -951 -570 -1217 -1017 -97 -163 -184
-369 -217 -520 -7 -28 -6 -38 2 -35 7 2 13 20 15 39 2 20 10 39 18 42 16 6 19
-9 4 -19 -5 -3 -10 -19 -10 -35 0 -16 -4 -32 -10 -35 -5 -3 -10 -16 -10 -28 0
-18 -2 -19 -10 -7 -5 8 -10 12 -10 8 0 -3 -3 -14 -7 -24 -5 -13 -3 -15 7 -9
10 6 12 4 6 -11 -11 -28 -36 -174 -36 -211 0 -49 -29 -113 -50 -113 -27 0 -29
17 -20 151 12 158 22 221 55 344 45 167 47 155 -19 155 -48 0 -56 3 -56 19 0
24 18 38 55 43 33 3 27 -8 129 208 128 271 251 430 540 700 151 142 421 325
574 390 37 15 105 45 152 65 141 61 268 97 445 126 39 6 88 17 110 24 49 16
288 19 316 5z m632 3 c-7 -2 -21 -2 -30 0 -10 3 -4 5 12 5 17 0 24 -2 18 -5z
m104 1 c-3 -3 -12 -4 -19 -1 -8 3 -5 6 6 6 11 1 17 -2 13 -5z m-1502 -21 c-10
-3 -29 -12 -42 -20 -12 -8 -28 -13 -35 -10 -8 4 -6 6 5 6 9 1 17 7 17 14 0 9
13 14 38 14 20 0 28 -2 17 -4z m1285 -11 c0 -12 -3 -12 -17 -1 -10 7 -20 14
-22 16 -2 1 6 1 18 0 11 -1 21 -8 21 -15z m30 9 c0 -6 -4 -12 -8 -15 -5 -3 -9
1 -9 9 0 8 4 15 9 15 4 0 8 -4 8 -9z m275 -1 c-3 -5 -12 -10 -18 -10 -7 0 -6
4 3 10 19 12 23 12 15 0z m-1690 -39 c-3 -6 -11 -11 -16 -11 -5 0 -4 6 3 14
14 16 24 13 13 -3z m1850 -29 c-3 -3 -11 0 -18 7 -9 10 -8 11 6 5 10 -3 15 -9
12 -12z m-1925 -6 c0 -2 -9 -6 -20 -9 -11 -3 -20 -1 -20 4 0 5 9 9 20 9 11 0
20 -2 20 -4z m-115 -46 c-3 -5 -11 -10 -16 -10 -6 0 -7 5 -4 10 3 6 11 10 16
10 6 0 7 -4 4 -10z m1753 -9 c22 -19 30 -55 13 -65 -5 -3 -11 1 -15 9 -4 11
-20 15 -56 15 -41 0 -56 -5 -75 -25 l-25 -24 0 27 c0 15 7 35 14 44 29 39 107
49 144 19z m-1873 -61 c-3 -5 -13 -10 -21 -10 -8 0 -14 -3 -14 -7 0 -5 -11
-13 -25 -20 -43 -19 -27 2 18 25 48 25 50 26 42 12z m1860 -20 c0 -28 -38 -52
-89 -54 -25 -1 -32 3 -34 22 -6 40 25 63 77 60 42 -3 46 -5 46 -28z m-1310 0
c-3 -5 -14 -10 -23 -9 -14 0 -13 2 3 9 27 11 27 11 20 0z m-685 -54 c0 -2 -7
-6 -15 -10 -8 -3 -15 -1 -15 4 0 6 7 10 15 10 8 0 15 -2 15 -4z m550 0 c0 -7
-40 -14 -44 -7 -3 4 6 8 20 9 13 1 24 0 24 -2z m-603 -41 c-15 -16 -22 -11
-13 10 3 9 10 13 16 10 6 -4 5 -11 -3 -20z m543 19 c0 -1 -20 -14 -45 -27 -34
-19 -45 -22 -45 -11 0 8 8 14 19 14 10 0 24 6 30 13 9 11 41 20 41 11z m-610
-69 c-7 -8 -18 -15 -25 -15 -7 0 -18 -7 -25 -15 -7 -8 -17 -12 -22 -9 -5 3 10
16 34 29 53 28 53 28 38 10z m463 -12 c-7 -2 -19 -2 -25 0 -7 3 -2 5 12 5 14
0 19 -2 13 -5z m-53 -23 c0 -5 -4 -10 -10 -10 -5 0 -10 5 -10 10 0 6 5 10 10
10 6 0 10 -4 10 -10z m-31 -23 c-2 -2 -20 -14 -39 -26 -27 -17 -30 -18 -13 -3
12 11 19 22 16 26 -4 3 4 6 17 6 13 0 21 -1 19 -3z m-504 -26 c3 -5 1 -12 -5
-16 -5 -3 -10 1 -10 9 0 18 6 21 15 7z m-35 -36 c-7 -8 -20 -14 -29 -14 -13 1
-13 2 2 6 9 2 17 9 17 14 0 5 5 9 11 9 8 0 8 -5 -1 -15z m435 -4 c-20 -17
-124 -91 -130 -91 -3 0 -5 5 -5 10 0 6 6 9 13 8 6 -2 11 3 10 10 -2 6 6 12 17
12 11 0 20 5 20 10 0 6 5 10 11 10 6 0 22 9 36 20 25 20 46 28 28 11z m-520
-71 c-21 -22 -44 -40 -50 -40 -5 1 1 10 15 22 14 11 24 25 23 29 -2 5 4 9 12
9 8 0 15 5 15 10 0 6 5 10 12 10 7 0 -6 -18 -27 -40z m374 -32 c-2 -2 -19 -16
-38 -33 -19 -16 -30 -24 -26 -16 15 26 40 49 54 50 8 1 12 0 10 -1z m-475 -63
c-4 -8 -10 -15 -15 -15 -4 0 -6 7 -3 15 4 8 10 15 15 15 4 0 6 -7 3 -15z m376
-14 c0 -11 -62 -62 -68 -56 -7 6 32 44 40 39 4 -3 8 2 8 10 0 9 5 16 10 16 6
0 10 -4 10 -9z m-410 -14 c0 -2 -10 -12 -22 -23 l-23 -19 19 23 c18 21 26 27
26 19z m330 -61 c0 -2 -7 -9 -15 -16 -13 -11 -14 -10 -9 4 5 14 24 23 24 12z
m-400 -20 c0 -2 -8 -10 -17 -17 -16 -13 -17 -12 -4 4 13 16 21 21 21 13z m360
-20 c0 -2 -7 -7 -16 -10 -8 -3 -12 -2 -9 4 6 10 25 14 25 6z m-400 -31 c-7 -9
-15 -13 -19 -10 -3 3 1 10 9 15 21 14 24 12 10 -5z m-45 -54 c-8 -14 -25 -14
-25 0 0 5 5 7 10 4 6 -3 10 -1 10 6 0 7 3 10 6 6 3 -3 3 -10 -1 -16z m340 -19
c-15 -16 -16 -15 -4 12 7 15 15 23 17 16 3 -7 -3 -19 -13 -28z m-387 -50 c-29
-37 -38 -44 -38 -30 0 8 9 20 19 28 11 7 17 18 14 23 -3 6 -1 7 6 3 9 -6 9
-12 -1 -24z m333 -9 c-18 -21 -59 -73 -93 -115 -36 -46 -65 -75 -72 -70 -7 4
-5 8 7 10 15 3 21 14 18 35 0 4 6 7 14 7 8 0 15 7 15 15 0 8 5 15 10 15 6 0
10 4 10 10 0 12 34 53 80 97 46 43 49 42 11 -4z m1551 -49 c8 -17 7 -40 -2
-86 l-14 -62 -12 40 c-8 26 -12 32 -13 17 -3 -62 -25 -172 -33 -167 -5 3 -8 0
-7 -7 8 -42 -78 -176 -177 -275 -74 -75 -110 -96 -125 -73 -15 24 21 119 83
220 15 25 28 49 28 53 0 3 -17 6 -37 7 -21 0 -46 4 -56 8 -17 6 -16 9 7 34 15
16 30 25 36 22 5 -3 19 -1 30 5 28 15 127 151 165 225 22 43 37 61 55 65 36 9
60 0 72 -26z m-1939 -18 c-10 -13 -19 -20 -21 -15 -4 10 19 38 31 39 4 0 0
-11 -10 -24z m-43 -70 c0 -11 -19 -15 -25 -6 -3 5 1 10 9 10 9 0 16 -2 16 -4z
m1675 -62 l-15 -29 0 27 c0 14 6 28 13 31 18 7 19 3 2 -29z m-15 -39 c0 -12
-19 -12 -23 0 -4 9 -1 12 9 8 7 -3 14 -7 14 -8z m-1459 -62 c-8 -15 -10 -15
-11 -2 0 17 10 32 18 25 2 -3 -1 -13 -7 -23z m1424 17 c3 -5 1 -10 -4 -10 -6
0 -11 5 -11 10 0 6 2 10 4 10 3 0 8 -4 11 -10z m-1725 -25 c0 -8 -7 -15 -15
-15 -13 0 -14 3 -3 15 16 18 18 18 18 0z m1694 -32 c-16 -21 -36 -46 -46 -57
-16 -18 -17 -18 -11 3 3 11 9 21 14 21 5 0 9 7 9 16 0 8 4 12 10 9 5 -3 15 5
22 19 6 14 16 26 21 26 5 0 -3 -17 -19 -37z m-1413 -1 c-5 -10 -17 -25 -26
-32 -13 -11 -15 -10 -9 4 3 9 10 16 15 16 5 0 9 7 9 15 0 8 5 15 10 15 7 0 7
-6 1 -18z m-319 -49 c-26 -48 -82 -175 -82 -184 0 -6 -6 -23 -14 -37 -17 -34
-30 -65 -52 -124 -9 -27 -18 -48 -20 -48 -3 0 1 32 5 48 1 1 1 5 0 8 0 4 4 10
10 13 6 4 12 20 13 37 1 16 5 31 8 34 11 9 40 78 40 94 0 9 5 16 10 16 6 0 10
13 10 29 0 16 6 31 15 35 8 3 15 14 15 25 0 11 5 23 10 26 6 3 10 15 10 25 0
10 6 20 13 23 17 6 20 1 9 -20z m288 -7 c0 -2 -7 -7 -16 -10 -8 -3 -12 -2 -9
4 6 10 25 14 25 6z m1374 -41 c-4 -8 -8 -15 -10 -15 -2 0 -4 7 -4 15 0 8 4 15
10 15 5 0 7 -7 4 -15z m-34 -40 c-14 -25 -30 -33 -30 -15 0 6 7 13 15 16 8 4
15 13 15 22 0 8 3 12 7 9 3 -4 0 -18 -7 -32z m-1399 -23 c-6 -2 -11 -10 -11
-18 0 -9 -5 -12 -11 -9 -7 5 -5 13 5 24 9 10 17 26 17 37 1 13 3 12 6 -6 3
-13 0 -26 -6 -28z m1359 -37 c-7 -8 -17 -15 -22 -15 -11 0 14 29 26 30 5 0 3
-7 -4 -15z m-1390 -25 c0 -5 -5 -10 -11 -10 -5 0 -7 5 -4 10 3 6 8 10 11 10 2
0 4 -4 4 -10z m-27 -65 c-20 -41 -22 -41 -16 3 3 18 11 32 19 32 11 0 10 -7
-3 -35z m-30 -40 c4 -8 3 -16 -1 -19 -4 -3 -9 4 -9 15 -2 23 3 25 10 4z m-313
-152 c0 -5 -5 -15 -10 -23 -8 -12 -10 -11 -10 8 0 12 5 22 10 22 6 0 10 -3 10
-7z m-20 -79 c0 -1 -3 -9 -6 -18 -8 -22 -23 -20 -21 2 0 10 7 19 14 19 7 0 13
-1 13 -3z m-59 -292 c-6 -2 -9 -8 -5 -13 3 -5 0 -9 -5 -9 -15 0 -14 23 1 38
10 10 14 10 17 0 2 -6 -1 -14 -8 -16z m2221 -19 c-6 -2 -10 -9 -6 -14 3 -5 -7
-9 -23 -9 l-28 0 25 14 c14 8 30 14 35 14 6 0 4 -2 -3 -5z m301 -9 c41 -13 40
-13 -28 -6 -38 4 -112 7 -162 6 -51 0 -93 3 -93 7 0 13 238 8 283 -7z m-2530
-91 c-3 -49 -7 -90 -9 -92 -2 -2 -4 34 -4 81 0 72 4 98 15 98 2 0 0 -39 -2
-87z m2057 79 c0 -4 -10 -8 -22 -9 -13 0 -36 -3 -53 -6 -16 -2 -24 -2 -17 0 7
3 10 8 8 12 -3 4 15 8 40 9 24 1 44 -2 44 -6z m-130 -23 c0 -8 -15 -10 -45 -7
-24 3 -43 2 -41 -1 3 -4 -41 -17 -97 -30 -56 -12 -115 -27 -131 -32 -24 -7
-26 -7 -16 6 6 7 30 15 53 17 23 2 41 8 40 13 0 6 24 11 55 13 31 1 59 6 62
11 14 21 120 30 120 10z m-370 -84 c-33 -19 -50 -18 -26 0 11 8 27 15 35 15
10 -1 7 -6 -9 -15z m-60 -19 c0 -3 -4 -8 -10 -11 -5 -3 -10 -1 -10 4 0 6 5 11
10 11 6 0 10 -2 10 -4z m-40 -20 c0 -2 -7 -6 -15 -10 -8 -3 -15 -1 -15 4 0 6
7 10 15 10 8 0 15 -2 15 -4z m657 -72 c4 -13 -326 -77 -477 -94 -166 -18 -184
-18 -188 2 -9 45 191 89 492 107 117 7 167 2 173 -15z m-2120 -56 c-3 -7 -5
-2 -5 12 0 14 2 19 5 13 2 -7 2 -19 0 -25z m10 -32 c-3 -8 -1 -17 6 -20 9 -3
9 -5 0 -5 -15 -1 -26 16 -18 29 9 15 18 12 12 -4z m1310 -8 c-3 -8 -6 -5 -6 6
-1 11 2 17 5 13 3 -3 4 -12 1 -19z m-1267 -177 c0 -2 -6 2 -13 8 -8 6 -14 28
-15 48 l0 38 14 -45 c7 -25 14 -47 14 -49z m14 -82 c-10 -17 -20 -1 -22 38
l-2 38 15 -34 c8 -18 12 -37 9 -42z m1936 -79 c0 -32 -22 -84 -46 -108 -8 -7
-14 -11 -14 -7 0 10 -31 -10 -125 -80 -49 -37 -144 -94 -209 -127 -85 -43
-115 -62 -105 -68 11 -7 9 -9 -6 -9 -11 0 -48 -8 -82 -18 -64 -18 -90 -12 -78
18 13 33 191 131 358 196 27 11 81 54 154 125 120 116 153 133 153 78z m-295
-20 c-3 -5 -12 -10 -18 -10 -7 0 -6 4 3 10 19 12 23 12 15 0z m-33 -32 c-5 -5
-18 -8 -28 -5 -15 4 -14 5 4 6 15 1 21 5 16 13 -5 7 -3 8 5 3 8 -5 9 -11 3
-17z m-658 -48 c8 0 16 -7 20 -15 3 -8 3 -15 1 -15 -11 0 -55 44 -55 54 0 6 5
3 11 -6 5 -10 16 -18 23 -18z m615 18 c-8 -5 -23 -13 -34 -19 -19 -9 -19 -9
-2 4 13 11 15 16 5 20 -7 2 0 4 16 4 20 0 24 -2 15 -9z m-559 -58 c0 -5 -2
-10 -4 -10 -3 0 -8 5 -11 10 -3 6 -1 10 4 10 6 0 11 -4 11 -10z m853 -5 c-3
-9 -8 -14 -10 -11 -3 3 -2 9 2 15 9 16 15 13 8 -4z m-793 -15 c0 -5 10 -10 23
-11 12 0 16 -3 9 -6 -8 -3 -24 -1 -35 5 -12 6 -29 13 -37 15 -8 3 -3 6 13 6
15 1 27 -3 27 -9z m313 3 c-7 -2 -19 -2 -25 0 -7 3 -2 5 12 5 14 0 19 -2 13
-5z m-165 -20 c-10 -2 -26 -2 -35 0 -10 3 -2 5 17 5 19 0 27 -2 18 -5z m632 3
c0 -3 -4 -8 -10 -11 -5 -3 -10 -1 -10 4 0 6 5 11 10 11 6 0 10 -2 10 -4z m-30
-26 c0 -5 -5 -10 -11 -10 -5 0 -7 5 -4 10 3 6 8 10 11 10 2 0 4 -4 4 -10z
m-36 -41 c-24 -28 -109 -82 -154 -98 -19 -8 -50 -20 -68 -28 -18 -8 -43 -12
-55 -10 -20 4 -20 4 3 6 14 1 34 8 44 16 11 8 30 15 44 15 13 0 20 4 17 10 -4
6 7 10 24 10 21 0 31 5 31 15 0 8 7 15 15 15 22 0 96 51 89 61 -3 5 3 9 12 9
16 0 15 -2 -2 -21z m-2454 -243 c0 -2 -9 -6 -20 -9 -11 -3 -18 -1 -14 4 5 9
34 13 34 5z m-140 -101 c0 -10 -109 -123 -114 -118 -2 3 6 17 19 31 13 14 22
29 20 33 -3 4 3 6 13 5 9 0 16 5 15 12 -2 6 3 12 11 12 8 0 16 7 20 15 5 14
16 21 16 10z m134 -132 c10 -25 -49 -138 -85 -163 -16 -12 -26 -26 -23 -32 4
-6 2 -8 -4 -4 -14 8 -55 -50 -46 -65 4 -7 3 -9 -3 -6 -13 8 -44 -58 -33 -69 5
-5 -11 -47 -37 -98 -25 -50 -46 -95 -47 -100 -3 -22 -29 -76 -36 -76 -14 0
-30 52 -30 96 0 48 33 142 81 229 15 27 35 66 45 85 53 99 107 165 164 203 32
21 46 21 54 0z m-277 -30 c-14 -15 -30 -24 -33 -20 -4 4 6 18 21 32 38 32 47
22 12 -12z m2713 12 c18 -22 4 -79 -29 -114 -16 -17 -26 -33 -22 -37 3 -4 -2
-4 -12 -1 -13 5 -60 -35 -188 -158 -174 -168 -320 -286 -433 -351 -38 -22 -63
-43 -62 -52 0 -9 -7 -17 -17 -18 -12 -1 -13 -1 -2 3 8 2 13 9 10 14 -4 5 -14
5 -26 -1 -11 -6 -16 -16 -13 -22 4 -7 3 -8 -5 -4 -6 4 -21 4 -32 1 -13 -4 -17
-10 -11 -14 6 -3 -4 -11 -23 -17 -19 -6 -32 -7 -30 -3 3 4 -14 -2 -36 -13 -23
-11 -66 -26 -96 -34 -78 -20 -335 -46 -346 -35 -18 18 1 41 34 41 56 0 317 68
409 107 285 120 472 265 790 611 56 61 108 112 115 112 7 0 18 -7 25 -15z
m-2820 -149 c0 -2 -7 -6 -15 -10 -8 -3 -15 -1 -15 4 0 6 7 10 15 10 8 0 15 -2
15 -4z m258 -71 c-6 -14 -13 -23 -15 -21 -5 5 15 46 22 46 3 0 -1 -11 -7 -25z
m2116 10 c-4 -8 -13 -15 -22 -15 -13 0 -12 3 4 15 24 18 25 18 18 0z m344 -9
c-13 -13 -25 -22 -27 -20 -6 5 30 44 41 44 5 0 -2 -11 -14 -24z m-2765 -6 c-7
-26 -19 -34 -29 -19 -4 7 -3 9 3 6 6 -4 13 2 16 13 3 11 7 20 10 20 3 0 3 -9
0 -20z m263 -72 c-9 -12 -16 -17 -16 -10 0 14 23 42 29 37 1 -2 -4 -14 -13
-27z m2449 22 c3 -5 1 -10 -4 -10 -6 0 -11 5 -11 10 0 6 2 10 4 10 3 0 8 -4
11 -10z m-2743 -17 c-6 -2 -10 -9 -7 -13 3 -5 1 -11 -4 -14 -7 -5 -8 11 -2 32
1 1 7 2 14 1 9 0 9 -2 -1 -6z m2348 -3 c0 -5 -4 -10 -10 -10 -5 0 -10 5 -10
10 0 6 5 10 10 10 6 0 10 -4 10 -10z m356 -25 c-35 -30 -40 -31 -24 -5 11 17
20 22 48 29 3 0 -8 -10 -24 -24z m-1906 -6 c0 -15 82 -89 92 -83 4 3 8 -2 8
-10 0 -9 6 -16 14 -16 8 0 16 -7 20 -15 11 -29 -45 10 -109 74 -40 41 -54 61
-42 61 9 0 17 -5 17 -11z m-825 -56 c-4 -10 -10 -29 -12 -43 -2 -14 -9 -50
-15 -80 l-11 -55 -8 35 c-6 26 -4 37 7 43 9 5 14 26 14 62 0 44 3 55 16 55 12
0 14 -5 9 -17z m2294 14 c-2 -1 -12 -9 -22 -16 -15 -12 -17 -12 -11 3 3 9 13
16 22 16 8 0 13 -1 11 -3z m-49 -27 c0 -16 -38 -32 -46 -18 -4 7 -3 8 5 4 6
-4 14 0 17 8 7 17 24 22 24 6z m395 -10 c-10 -11 -25 -20 -33 -20 -13 0 -12 4
4 19 27 27 53 28 29 1z m-445 -30 c0 -5 -10 -10 -22 -9 -22 0 -22 1 -3 9 11 5
21 9 23 9 1 1 2 -3 2 -9z m345 -55 c-27 -24 -52 -42 -54 -39 -5 5 34 44 44 44
3 0 15 9 27 20 12 11 24 20 27 20 3 -1 -16 -21 -44 -45z m-1541 20 c-4 -8 -11
-12 -16 -9 -6 4 -5 10 3 15 19 12 19 11 13 -6z m1120 6 c7 -11 -22 -36 -31
-27 -3 3 -1 6 6 6 8 0 11 7 7 15 -6 16 9 21 18 6z m-1024 -62 c0 -6 -4 -7 -10
-4 -5 3 -10 11 -10 16 0 6 5 7 10 4 6 -3 10 -11 10 -16z m923 6 c-3 -9 -8 -14
-10 -11 -3 3 -2 9 2 15 9 16 15 13 8 -4z m-789 -52 c7 -16 5 -16 -30 2 l-29
15 27 -2 c15 -1 30 -8 32 -15z m676 13 c0 -2 -7 -6 -15 -10 -8 -3 -15 -1 -15
4 0 6 7 10 15 10 8 0 15 -2 15 -4z m540 0 c0 -3 -4 -8 -10 -11 -5 -3 -10 -1
-10 4 0 6 5 11 10 11 6 0 10 -2 10 -4z m-2483 -53 c-3 -10 -5 -2 -5 17 0 19 2
27 5 18 2 -10 2 -26 0 -35z m1753 28 c0 -6 -4 -13 -10 -16 -5 -3 -10 1 -10 9
0 9 5 16 10 16 6 0 10 -4 10 -9z m-422 -8 c-10 -2 -26 -2 -35 0 -10 3 -2 5 17
5 19 0 27 -2 18 -5z m475 0 c-7 -2 -21 -2 -30 0 -10 3 -4 5 12 5 17 0 24 -2
18 -5z m536 -66 c-2 -1 -12 -9 -22 -16 -15 -12 -17 -12 -11 3 3 9 13 16 22 16
8 0 13 -1 11 -3z m-2342 -29 c-3 -8 -6 -5 -6 6 -1 11 2 17 5 13 3 -3 4 -12 1
-19z m2293 7 c0 -2 -7 -8 -15 -15 -12 -10 -15 -10 -15 2 0 8 7 15 15 15 8 0
15 -1 15 -2z m-40 -25 c0 -5 -4 -10 -10 -10 -5 0 -10 5 -10 10 0 6 5 10 10 10
6 0 10 -4 10 -10z m-2240 -10 c0 -5 -5 -10 -11 -10 -5 0 -7 5 -4 10 3 6 8 10
11 10 2 0 4 -4 4 -10z"/>
<path d="M11338 8113 c12 -2 30 -2 40 0 9 3 -1 5 -23 4 -22 0 -30 -2 -17 -4z"/>
<path d="M11108 8063 c7 -3 16 -2 19 1 4 3 -2 6 -13 5 -11 0 -14 -3 -6 -6z"/>
<path d="M11000 8034 c-17 -10 -18 -13 -5 -8 11 3 34 10 50 14 27 7 28 8 5 9
-14 0 -36 -7 -50 -15z"/>
<path d="M10926 8011 c-4 -5 3 -7 14 -4 23 6 26 13 6 13 -8 0 -17 -4 -20 -9z"/>
<path d="M10695 7910 c-3 -6 1 -7 9 -4 18 7 21 14 7 14 -6 0 -13 -4 -16 -10z"/>
<path d="M9555 6759 c-4 -6 -5 -12 -2 -15 2 -3 7 2 10 11 7 17 1 20 -8 4z"/>
<path d="M11390 6809 c-118 -139 -139 -170 -139 -199 0 -14 3 -19 6 -12 2 6
11 12 19 12 8 0 14 7 14 15 0 8 7 15 15 15 8 0 15 5 15 10 0 6 16 26 35 46 19
19 35 42 35 51 0 9 3 13 6 10 8 -7 44 36 44 52 0 14 22 54 33 62 5 4 7 14 5
22 -2 11 -32 -18 -88 -84z"/>
<path d="M8356 4261 c-4 -7 -5 -15 -2 -18 9 -9 19 4 14 18 -4 11 -6 11 -12 0z"/>
<path d="M8327 4205 c-4 -8 -2 -17 2 -20 5 -2 11 4 14 15 6 23 -8 27 -16 5z"/>
<path d="M8307 4166 c-4 -10 -5 -21 -2 -24 9 -9 17 6 13 25 -3 17 -4 17 -11
-1z"/>
<path d="M9124 8249 c-490 -35 -1132 -320 -1778 -789 -440 -319 -603 -505
-668 -763 -39 -153 -11 -410 59 -540 17 -32 36 -53 48 -55 12 -2 33 -26 55
-63 48 -84 90 -119 140 -119 54 0 94 41 187 190 56 90 94 138 175 216 116 112
348 297 568 453 l105 74 -150 -6 c-128 -5 -243 -20 -440 -57 -94 -18 -242 -52
-267 -61 -46 -19 -53 -6 -18 34 24 28 40 37 64 37 17 1 56 10 86 21 100 36
164 56 285 89 103 28 141 33 270 38 162 5 164 5 290 80 33 19 93 57 133 84
100 68 253 127 372 144 52 7 159 13 236 14 122 0 154 -3 228 -25 47 -14 93
-25 101 -25 8 0 27 16 42 36 15 20 36 44 46 53 24 20 191 229 242 301 21 30
57 76 79 102 23 25 60 69 84 96 26 32 71 66 120 94 106 59 111 61 138 43 16
-10 22 -11 18 -3 -8 21 -92 78 -173 120 -61 30 -70 38 -48 38 16 0 26 -4 22
-10 -3 -5 3 -11 14 -11 42 -3 109 -34 90 -42 -9 -3 -6 -6 7 -6 12 -1 24 -8 28
-16 8 -23 26 -18 26 8 0 48 -98 109 -269 166 -163 55 -344 75 -547 60z m-42
-81 c-4 -3 -28 -9 -54 -11 -36 -4 -45 -2 -41 9 3 9 20 12 53 11 27 -1 46 -5
42 -9z m88 8 c0 -2 -15 -6 -34 -8 -19 -2 -32 0 -30 4 5 8 64 12 64 4z m63 -3
c-7 -2 -19 -2 -25 0 -7 3 -2 5 12 5 14 0 19 -2 13 -5z m60 0 c-7 -2 -19 -2
-25 0 -7 3 -2 5 12 5 14 0 19 -2 13 -5z m241 -8 c2 -6 21 -12 42 -13 22 -2 41
-7 42 -12 2 -6 11 -10 19 -10 9 0 14 -2 11 -5 -3 -3 -40 4 -84 15 -43 10 -115
23 -159 28 l-80 9 102 -1 c61 -1 104 -5 107 -11z m-564 -14 c0 -4 -19 -11 -42
-14 -24 -2 -52 -8 -63 -12 -16 -6 -17 -5 -5 4 8 6 11 11 5 12 -5 1 15 5 45 9
30 4 56 7 58 8 1 1 2 -2 2 -7z m-190 -41 c-18 -12 -30 -13 -30 -2 0 4 10 9 22
9 18 2 20 0 8 -7z m930 1 c0 -4 -11 -6 -25 -3 -14 2 -25 6 -25 8 0 2 11 4 25
4 14 0 25 -4 25 -9z m-1030 -26 c-7 -9 -15 -13 -19 -10 -3 3 1 10 9 15 21 14
24 12 10 -5z m-58 -23 c-32 -16 -50 -12 -38 7 4 5 21 9 38 9 l32 -1 -32 -15z
m-68 -23 c3 -3 -4 -5 -14 -6 -11 -1 -22 2 -24 6 -5 8 30 8 38 0z m-54 -23
c-17 -17 -82 -36 -77 -22 2 6 19 12 37 14 24 3 30 6 19 12 -10 7 -8 9 9 7 14
-1 18 -5 12 -11z m738 -22 c28 -19 32 -70 5 -59 -10 4 -29 9 -43 10 -18 2 -19
1 -3 -2 27 -5 39 -34 19 -48 -8 -7 -60 -19 -116 -28 -348 -57 -759 -211 -1155
-432 -139 -78 -513 -331 -544 -369 -7 -9 -17 -13 -22 -10 -5 3 -9 -2 -9 -10 0
-8 -9 -18 -20 -21 -11 -3 -20 -11 -20 -17 0 -6 -3 -8 -6 -5 -9 8 -64 -31 -64
-46 0 -6 9 -1 20 11 12 12 24 22 27 22 4 0 -8 -16 -27 -35 -35 -36 -64 -49
-39 -18 33 42 -70 -52 -119 -109 -116 -133 -137 -167 -137 -222 0 -40 -4 -51
-17 -54 -21 -4 -38 33 -38 83 l0 33 -72 -19 c-89 -24 -88 -24 -88 4 0 34 15
50 49 52 42 4 63 23 129 125 63 95 173 208 307 315 93 74 141 108 310 216 55
35 131 86 168 112 38 27 106 67 150 89 45 23 100 54 122 68 61 40 417 213 530
258 55 21 129 45 165 51 36 7 85 17 110 22 42 8 122 20 250 39 94 13 154 11
178 -6z m-889 -38 c-15 -13 -49 -25 -49 -17 0 5 8 12 18 14 24 6 36 8 31 3z
m-95 -41 c-4 -8 -8 -15 -10 -15 -2 0 -4 7 -4 15 0 8 4 15 10 15 5 0 7 -7 4
-15z m-144 -64 c0 -5 -7 -11 -14 -14 -10 -4 -13 -1 -9 9 6 15 23 19 23 5z
m-151 -94 c-2 -1 -11 -8 -20 -15 -13 -9 -16 -9 -16 3 0 8 9 15 20 15 11 0 18
-1 16 -3z m-64 -37 c-9 -15 -107 -62 -103 -49 2 7 13 14 23 15 11 2 21 8 23
13 2 6 12 11 23 11 11 0 19 7 19 16 0 8 5 12 10 9 6 -4 8 -10 5 -15z m-115
-64 c0 -2 -7 -6 -15 -10 -8 -3 -15 -1 -15 4 0 6 7 10 15 10 8 0 15 -2 15 -4z
m-70 -41 c0 -2 -6 -8 -13 -14 -10 -8 -14 -7 -14 2 0 8 6 14 14 14 7 0 13 -1
13 -2z m-120 -79 c0 -2 -7 -9 -15 -16 -13 -11 -14 -10 -9 4 5 14 24 23 24 12z
m-49 -39 c-10 -9 -11 -8 -5 6 3 10 9 15 12 12 3 -3 0 -11 -7 -18z m-21 -7 c0
-5 -7 -10 -16 -10 -8 0 -12 5 -9 10 3 6 10 10 16 10 5 0 9 -4 9 -10z m-65 -50
c-3 -5 -16 -15 -28 -21 -19 -9 -19 -8 3 10 28 23 34 26 25 11z m-155 -115 c0
-2 -9 -9 -20 -15 -12 -6 -20 -7 -20 -1 0 5 8 12 18 14 9 3 18 5 20 6 1 0 2 -1
2 -4z m-74 -58 c-16 -12 -51 -41 -78 -64 -50 -44 -58 -49 -58 -35 0 5 12 14
26 21 15 6 24 14 21 18 -7 6 48 50 76 59 9 4 17 10 17 15 0 5 6 9 13 8 6 0 -1
-10 -17 -22z m-166 -137 c-13 -11 -25 -20 -28 -20 -3 0 3 9 13 20 10 11 23 20
28 20 6 0 0 -9 -13 -20z m-55 -49 c-3 -6 -11 -11 -16 -11 -5 0 -4 6 3 14 14
16 24 13 13 -3z m-75 -70 c-10 -20 -30 -37 -30 -27 0 6 33 46 38 46 1 0 -2 -9
-8 -19z m210 -213 c-50 -62 -96 -125 -103 -140 -6 -16 -15 -28 -19 -28 -5 0
-8 -6 -8 -14 0 -8 -5 -18 -11 -22 -16 -9 0 36 19 55 8 8 20 27 26 41 17 39
167 220 183 220 2 0 -37 -51 -87 -112z m-310 63 c-6 -12 -15 -21 -21 -21 -6 0
-3 7 5 16 9 8 16 20 16 26 0 6 3 9 6 6 3 -4 1 -16 -6 -27z m-30 -56 c-14 -17
-30 -20 -30 -5 0 6 7 10 15 10 8 0 15 5 15 12 0 6 3 8 6 5 4 -4 1 -13 -6 -22z
m-44 -122 c-10 -26 -18 -8 -9 23 5 21 8 24 11 11 2 -10 1 -25 -2 -34z m3 -448
l0 -20 -9 20 c-5 11 -9 27 -9 35 -1 13 0 13 9 0 5 -8 9 -24 9 -35z m18 -87
c-3 -8 -6 -5 -6 6 -1 11 2 17 5 13 3 -3 4 -12 1 -19z"/>
<path d="M9030 7930 c-17 -6 -9 -7 25 -3 28 3 52 7 54 9 8 7 -54 2 -79 -6z"/>
<path d="M8943 7913 c9 -2 23 -2 30 0 6 3 -1 5 -18 5 -16 0 -22 -2 -12 -5z"/>
<path d="M8898 7903 c7 -3 16 -2 19 1 4 3 -2 6 -13 5 -11 0 -14 -3 -6 -6z"/>
<path d="M8858 7893 c7 -3 16 -2 19 1 4 3 -2 6 -13 5 -11 0 -14 -3 -6 -6z"/>
<path d="M8760 7875 c-19 -7 -28 -13 -20 -13 8 0 31 6 50 13 19 7 28 13 20 13
-8 0 -31 -6 -50 -13z"/>
<path d="M8152 7638 c-23 -11 -41 -22 -39 -24 4 -5 87 35 87 41 0 7 1 7 -48
-17z"/>
<path d="M7830 7464 c-85 -51 -210 -135 -210 -141 0 -6 66 34 106 64 17 13 34
23 37 23 3 0 25 13 49 28 24 16 59 38 78 50 19 12 31 21 25 21 -5 0 -44 -21
-85 -45z"/>
<path d="M8320 6811 c-182 -48 -352 -127 -549 -254 -199 -129 -304 -237 -372
-382 -20 -44 -85 -230 -144 -414 -133 -415 -146 -447 -310 -766 -256 -500
-297 -640 -213 -728 16 -18 27 -26 23 -19 -3 6 -2 12 4 12 5 0 24 -20 41 -45
50 -73 156 -135 302 -177 58 -16 103 -21 218 -22 133 -1 148 1 188 22 114 61
199 180 355 497 129 264 152 306 173 318 87 49 187 97 224 107 27 7 68 32 108
66 110 93 124 98 302 102 l155 3 72 -73 72 -73 -11 -55 c-5 -30 -8 -91 -6
-135 3 -67 10 -93 42 -160 59 -127 111 -200 169 -238 67 -45 137 -79 213 -106
151 -53 221 -61 356 -40 190 30 426 132 356 153 -7 3 -25 7 -40 10 -20 5 -25
10 -21 26 9 33 -44 72 -143 104 -192 62 -291 122 -483 294 -83 75 -141 120
-153 119 -16 -1 -13 -8 21 -38 23 -21 41 -42 41 -48 0 -6 7 -11 15 -11 8 0 14
-6 13 -12 -2 -7 3 -12 10 -10 6 1 11 -2 10 -7 -2 -5 11 -21 27 -35 17 -14 25
-26 19 -26 -20 0 -244 243 -244 264 0 4 -11 22 -23 39 -34 46 -78 157 -79 197
-1 52 -56 104 -71 68 -4 -9 -8 -9 -14 -3 -4 6 -19 11 -33 13 -14 1 -51 10 -82
19 -83 24 -78 42 26 92 47 23 87 44 89 49 3 4 3 58 0 120 -6 106 -7 112 -27
112 -12 0 -34 -7 -49 -15 -15 -8 -25 -10 -22 -5 4 6 0 10 -8 10 -8 0 -17 -6
-20 -14 -3 -7 -17 -13 -30 -13 -14 0 -40 -12 -59 -25 -41 -31 -117 -53 -130
-40 -23 23 10 56 145 147 78 52 151 102 161 110 25 19 53 204 33 217 -6 4 -18
6 -25 3 -7 -3 -11 -1 -8 4 10 16 -43 22 -87 10 -50 -13 -195 -90 -238 -126
-31 -26 -64 -81 -55 -90 8 -8 38 6 32 15 -2 4 10 9 27 10 18 2 34 7 35 12 2 6
13 10 23 10 11 0 17 5 14 10 -5 9 6 12 32 9 4 0 10 7 13 17 6 15 7 16 13 2 4
-12 -5 -21 -31 -34 -20 -10 -40 -17 -44 -16 -5 1 -8 -2 -8 -7 0 -5 -13 -12
-30 -16 -16 -4 -32 -11 -35 -16 -11 -17 -64 -10 -75 10 -12 24 -13 64 -1 76 5
6 23 51 40 100 47 139 57 164 64 171 4 4 7 14 7 21 0 8 23 60 50 116 40 81 50
111 50 152 0 49 -22 128 -42 152 -35 42 -160 64 -253 44 -81 -17 -111 -21 -97
-15 6 3 12 11 12 18 0 8 24 13 74 14 41 2 89 7 107 12 19 6 50 9 69 9 l35 -2
-35 -7 -35 -7 33 -2 c43 -1 43 -1 75 -34 16 -16 31 -26 35 -22 11 11 -22 58
-57 82 -76 51 -176 56 -331 14z m158 -28 c-16 -2 -40 -2 -55 0 -16 2 -3 4 27
4 30 0 43 -2 28 -4z m-178 -53 c0 -5 -2 -10 -4 -10 -3 0 -8 5 -11 10 -3 6 -1
10 4 10 6 0 11 -4 11 -10z m-77 -27 c-7 -2 -19 -2 -25 0 -7 3 -2 5 12 5 14 0
19 -2 13 -5z m-55 -20 c-10 -2 -26 -2 -35 0 -10 3 -2 5 17 5 19 0 27 -2 18 -5z
m-88 -23 c0 -5 -2 -10 -4 -10 -3 0 -8 5 -11 10 -3 6 -1 10 4 10 6 0 11 -4 11
-10z m-20 -20 c0 -5 -5 -10 -11 -10 -5 0 -7 5 -4 10 3 6 8 10 11 10 2 0 4 -4
4 -10z m-34 -12 c4 -6 3 -8 -4 -4 -6 3 -13 2 -17 -4 -3 -5 -11 -10 -18 -10 -6
0 -2 7 9 15 23 18 21 17 30 3z m-82 -42 c-10 -8 -37 -24 -59 -36 -22 -12 -55
-30 -72 -40 -27 -16 -33 -17 -33 -5 0 9 10 15 26 15 17 0 23 4 18 13 -4 6 -4
9 1 5 4 -4 20 1 35 12 16 11 32 20 37 20 4 0 19 9 33 20 14 10 27 17 29 14 3
-2 -4 -11 -15 -18z m562 -61 c12 -31 -60 -79 -117 -77 -16 0 -27 -3 -24 -7 2
-5 -7 -13 -21 -20 -31 -14 -37 -14 -29 -1 3 6 -1 10 -9 10 -10 0 -13 -6 -9
-15 4 -13 0 -15 -21 -11 -34 6 -56 -2 -56 -20 0 -17 -12 -18 -29 -1 -10 10
-11 9 -6 -5 5 -13 -1 -21 -22 -29 -112 -46 -141 -60 -217 -106 -64 -39 -86
-45 -86 -23 0 5 6 7 14 4 7 -3 20 2 29 10 9 9 23 16 31 16 9 0 16 7 16 16 0 8
4 13 9 9 5 -3 16 2 24 10 9 8 25 15 36 15 12 0 21 5 21 10 0 6 11 10 24 10 26
0 43 15 28 24 -11 6 -211 -90 -285 -138 -52 -33 -120 -90 -117 -98 1 -2 -2
-11 -5 -20 -10 -24 -41 -22 -59 3 -29 42 14 103 124 174 77 50 239 129 320
155 14 5 50 18 80 30 107 41 228 75 295 83 17 2 36 5 43 6 7 0 15 -6 18 -14z
m-758 -48 c-7 -7 -24 -16 -36 -20 -27 -6 -23 0 10 19 31 16 42 17 26 1z m-68
-41 c0 -3 -4 -8 -10 -11 -5 -3 -10 -1 -10 4 0 6 5 11 10 11 6 0 10 -2 10 -4z
m-30 -20 c0 -5 -65 -46 -74 -46 -3 0 -6 7 -6 15 0 9 10 15 26 15 14 0 23 4 19
10 -3 6 3 10 14 10 12 0 21 -2 21 -4z m600 -26 c0 -5 -5 -10 -11 -10 -5 0 -7
5 -4 10 3 6 8 10 11 10 2 0 4 -4 4 -10z m-714 -85 c-43 -71 -45 -72 -38 -38 3
15 11 34 19 41 7 8 11 18 8 23 -4 5 1 9 9 9 10 0 16 9 16 22 0 15 3 19 10 12
7 -7 0 -29 -24 -69z m-42 -86 c-8 -14 -24 -10 -24 6 0 9 6 12 15 9 8 -4 12
-10 9 -15z m-14 -34 c0 -8 -4 -15 -10 -15 -5 0 -7 7 -4 15 4 8 8 15 10 15 2 0
4 -7 4 -15z m375 4 c-4 -6 -13 -8 -20 -5 -7 2 -16 -2 -19 -11 -4 -9 -9 -13
-13 -10 -3 4 0 13 7 22 14 17 55 21 45 4z m-89 -50 c-13 -10 -30 -19 -38 -18
-7 0 -3 4 10 9 12 5 25 16 28 25 3 8 10 12 15 9 5 -3 -1 -14 -15 -25z m-322
-44 c-7 -16 -24 -21 -24 -6 0 8 7 13 27 20 1 1 0 -6 -3 -14z m1436 -21 c0 -8
-19 -13 -24 -6 -3 5 1 9 9 9 8 0 15 -2 15 -3z m-95 -63 c-3 -6 -14 -10 -23
-10 -15 1 -15 2 1 6 9 2 17 9 17 15 0 6 3 9 6 5 3 -3 3 -10 -1 -16z m-1395
-102 c-27 -79 -40 -103 -37 -71 1 12 5 22 9 22 4 0 8 11 8 25 0 27 33 111 38
96 2 -5 -7 -37 -18 -72z m298 4 c5 -52 -40 -205 -68 -233 -3 -3 -14 -23 -24
-45 -11 -22 -26 -53 -33 -68 -8 -16 -12 -31 -9 -34 3 -4 0 -13 -8 -22 -7 -9
-55 -119 -106 -246 -86 -215 -249 -549 -345 -710 -64 -107 -78 -137 -79 -175
-1 -28 -5 -36 -22 -38 -30 -4 -36 27 -18 96 27 103 44 145 126 307 74 148 104
204 178 340 29 54 48 100 134 325 84 223 184 451 227 518 20 31 43 24 47 -15z
m-361 -145 c-3 -8 -6 -5 -6 6 -1 11 2 17 5 13 3 -3 4 -12 1 -19z m1488 -78
c-3 -5 -14 -10 -23 -9 -14 0 -13 2 3 9 27 11 27 11 20 0z m-1208 -72 c-3 -8
-6 -5 -6 6 -1 11 2 17 5 13 3 -3 4 -12 1 -19z m-307 2 c0 -5 -7 -7 -15 -4 -8
4 -15 8 -15 10 0 2 7 4 15 4 8 0 15 -4 15 -10z m-17 -35 c-7 -21 -13 -19 -13
6 0 11 4 18 10 14 5 -3 7 -12 3 -20z m291 -71 c-29 -75 -45 -115 -62 -154
l-11 -25 0 28 c-1 15 4 27 9 27 6 0 10 11 10 24 0 13 7 29 15 36 8 7 15 23 15
36 0 12 5 26 10 29 6 3 10 15 10 26 0 17 21 51 27 45 2 -1 -9 -33 -23 -72z
m-308 10 c-11 -35 -11 -35 -14 -8 -3 21 9 42 24 44 1 0 -4 -16 -10 -36z m-30
-81 c-11 -20 -15 -23 -13 -8 3 24 17 48 24 42 2 -3 -2 -18 -11 -34z m-21 -69
c-8 -16 -15 -23 -15 -16 0 13 22 53 27 48 2 -2 -3 -16 -12 -32z m1820 -64 c10
-11 16 -20 13 -20 -3 0 -13 9 -23 20 -10 11 -16 20 -13 20 3 0 13 -9 23 -20z
m-1570 -59 c3 -5 2 -12 -3 -15 -5 -3 -9 1 -9 9 0 17 3 19 12 6z m-331 -47 c3
-8 2 -12 -4 -9 -6 3 -10 10 -10 16 0 14 7 11 14 -7z m307 -31 c-5 -10 -21 -49
-36 -88 -15 -38 -34 -84 -41 -102 -15 -33 -34 -52 -34 -34 0 6 5 11 10 11 6 0
10 14 10 31 0 17 4 28 10 24 6 -3 10 3 10 14 0 34 1 36 16 44 8 4 14 19 14 32
0 14 5 25 10 25 6 0 10 11 10 23 0 25 7 37 22 37 4 0 4 -8 -1 -17z m-370 -124
c-74 -141 -71 -136 -71 -113 0 12 7 27 15 34 8 7 15 19 15 26 0 8 5 14 10 14
6 0 9 3 9 8 -4 24 2 52 11 47 10 -6 14 7 11 33 -1 6 5 12 14 12 8 0 15 5 15
12 0 6 2 9 5 6 3 -2 -13 -38 -34 -79z m-88 -164 c-3 -8 -13 -15 -22 -15 -14 1
-14 2 2 11 9 6 14 15 11 21 -4 7 -2 8 4 4 6 -4 9 -13 5 -21z m341 10 c-4 -8
-8 -15 -10 -15 -2 0 -4 7 -4 15 0 8 4 15 10 15 5 0 7 -7 4 -15z m-374 -68 c-8
-7 -21 -24 -29 -39 -8 -16 -17 -26 -20 -23 -2 3 1 11 7 17 7 7 12 20 12 29 0
15 12 23 40 28 3 0 -2 -5 -10 -12z m345 3 c-3 -5 -10 -10 -16 -10 -5 0 -9 5
-9 10 0 6 7 10 16 10 8 0 12 -4 9 -10z m-38 -72 c-3 -8 -6 -5 -6 6 -1 11 2 17
5 13 3 -3 4 -12 1 -19z m-7 -28 c0 -5 -4 -10 -10 -10 -5 0 -10 5 -10 10 0 6 5
10 10 10 6 0 10 -4 10 -10z m2207 -5 c8 -8 19 -13 24 -10 5 4 7 0 4 -7 -3 -7
8 -22 25 -33 16 -11 30 -23 30 -27 0 -5 7 -8 16 -8 8 0 12 -4 9 -10 -3 -5 3
-10 13 -10 11 0 23 -7 26 -16 3 -8 9 -14 13 -11 5 2 22 -10 38 -26 25 -24 18
-21 -45 16 -74 45 -111 75 -159 130 -26 28 -21 38 6 12z m-2557 -3 c0 -5 -7
-17 -16 -28 -8 -10 -14 -14 -11 -9 2 6 7 18 10 28 7 17 17 23 17 9z m310 -72
c-12 -23 -24 -39 -28 -36 -3 4 0 12 6 18 7 7 12 20 12 30 0 10 5 18 10 18 6 0
10 8 11 18 0 9 3 12 5 5 3 -6 -4 -30 -16 -53z m-335 10 c-3 -5 -11 -10 -16
-10 -6 0 -7 5 -4 10 3 6 11 10 16 10 6 0 7 -4 4 -10z m-25 -49 c-6 -12 -15
-19 -21 -16 -14 9 -11 25 6 25 8 0 15 5 15 12 0 6 3 9 6 6 3 -4 1 -16 -6 -27z
m322 -33 c-6 -6 -15 -8 -19 -4 -4 4 -1 11 7 16 8 5 17 7 19 4 3 -2 -1 -10 -7
-16z m-349 -30 c-6 -7 -13 -20 -16 -28 -3 -9 -6 -3 -6 13 -1 19 4 27 15 27 12
0 14 -4 7 -12z m321 -18 c-19 -19 -20 -20 -20 -1 0 11 5 17 13 14 7 -3 13 1
13 8 0 7 3 9 7 5 4 -3 -2 -15 -13 -26z m2571 0 c3 -6 -1 -7 -9 -4 -18 7 -21
14 -7 14 6 0 13 -4 16 -10z m54 -19 c10 -6 30 -12 46 -14 16 -2 31 -9 33 -15
2 -7 2 -12 0 -12 -12 0 -121 49 -110 50 7 0 21 -4 31 -9z m-2979 -21 c0 -5 -5
-10 -11 -10 -5 0 -7 5 -4 10 3 6 8 10 11 10 2 0 4 -4 4 -10z m337 4 c-3 -3
-12 -4 -19 -1 -8 3 -5 6 6 6 11 1 17 -2 13 -5z m-350 -56 c-3 -7 -5 -2 -5 12
0 14 2 19 5 13 2 -7 2 -19 0 -25z m3143 22 c0 -5 10 -10 23 -11 12 0 17 -3 10
-5 -6 -3 -31 2 -55 10 -43 15 -43 15 -10 16 17 0 32 -4 32 -10z m-3162 -130
c1 -27 -2 -50 -8 -50 -7 0 -8 83 -1 98 4 9 7 -4 9 -48z"/>
<path d="M8155 6371 c-6 -5 -19 -11 -30 -14 -19 -4 -19 -5 1 -6 12 0 27 6 34
14 14 16 10 20 -5 6z"/>
<path d="M8904 4935 c-14 -21 -16 -41 -11 -108 3 -45 11 -98 17 -118 13 -45
50 -101 70 -106 10 -3 11 -2 3 4 -6 4 -13 24 -15 43 -2 21 -8 34 -15 33 -7 -2
-12 0 -12 5 6 38 -3 272 -11 272 -5 0 -17 -11 -26 -25z"/>
<path d="M11327 3829 c-67 -16 -97 -38 -251 -187 -182 -175 -306 -280 -444
-373 -104 -72 -157 -129 -150 -167 2 -10 -3 -26 -10 -34 -25 -31 16 -44 208
-68 47 -6 101 -15 120 -21 46 -14 404 -7 495 10 39 7 99 17 135 22 234 38 486
130 700 258 124 74 299 210 401 311 114 114 126 132 102 155 -18 19 -25 18
-153 -15 -47 -11 -114 -23 -149 -25 -35 -2 -66 -6 -69 -9 -3 -3 -12 -6 -21 -6
-11 0 -10 3 5 15 12 9 44 14 91 15 50 0 76 5 87 15 9 9 33 15 65 15 33 0 53 5
58 14 8 14 11 16 36 16 7 0 4 7 -7 15 -26 20 -118 19 -226 -1 -120 -22 -384
-29 -522 -14 -62 6 -185 25 -273 41 -173 31 -172 31 -228 18z m67 -51 c-6 -9
11 -11 68 -8 23 1 44 -5 54 -14 10 -10 33 -16 65 -16 32 0 49 -4 50 -12 0 -10
2 -10 6 0 2 6 10 12 16 12 5 0 7 -3 4 -7 -4 -3 1 -12 11 -19 14 -11 7 -10 -38
0 -30 8 -95 20 -145 27 -49 7 -101 19 -114 25 -30 16 -48 7 -101 -49 -22 -23
-40 -39 -40 -35 0 4 10 16 22 28 12 11 18 20 14 20 -4 0 8 14 26 30 26 24 41
30 70 28 20 -1 35 -5 32 -10z m576 -84 c69 -3 128 -9 132 -12 14 -14 -170 -11
-287 4 -139 18 -166 28 -50 20 44 -3 136 -9 205 -12z m207 -10 c-3 -3 -12 -4
-19 -1 -8 3 -5 6 6 6 11 1 17 -2 13 -5z m-957 -18 c0 -2 -7 -6 -15 -10 -8 -3
-15 -1 -15 4 0 6 7 10 15 10 8 0 15 -2 15 -4z m-54 -44 c-17 -16 -18 -16 -5 5
7 12 15 20 18 17 3 -2 -3 -12 -13 -22z m-241 -242 c-30 -33 -172 -140 -178
-133 -7 7 9 23 48 45 17 10 29 22 28 28 -2 5 0 9 5 9 19 -3 33 2 27 10 -3 5 4
12 15 16 11 3 20 11 20 16 0 5 7 9 16 9 8 0 12 5 9 10 -3 6 2 10 11 10 16 0
16 -1 -1 -20z m-408 -276 c-3 -3 -12 -4 -19 -1 -8 3 -5 6 6 6 11 1 17 -2 13
-5z"/>
</g>
</svg>
